<?xml version="1.0" encoding="utf-8"?>
<!-- Generator: Adobe Illustrator 26.3.1, SVG Export Plug-In . SVG Version: 6.00 Build 0)  -->
<svg version="1.1" id="Layer_1" xmlns="http://www.w3.org/2000/svg" xmlns:xlink="http://www.w3.org/1999/xlink" x="0px" y="0px"
	 viewBox="0 0 3844.14 944.13" style="enable-background:new 0 0 3844.14 944.13;" xml:space="preserve">
<style type="text/css">
	.st0{fill:url(#SVGID_1_);}
	.st1{fill:url(#SVGID_00000160163910050132121620000013680049992253384371_);}
	.st2{fill:url(#SVGID_00000094602827813091450400000008884923924723946142_);}
	.st3{fill:url(#SVGID_00000136396978451914876300000017017862622637881006_);}
	.st4{fill:#FFFFFF;}
	.st5{fill:url(#SVGID_00000039850901009970231140000015523717330704050103_);}
	.st6{fill:url(#SVGID_00000079448748245271159040000013362922803425979525_);}
	.st7{fill:url(#SVGID_00000000934269118381699930000010636903682009046957_);}
	.st8{fill:url(#SVGID_00000013874411274734325710000006797650489760886716_);}
	.st9{fill:url(#SVGID_00000173854595830349567940000008662347082902752387_);}
	.st10{fill:url(#SVGID_00000072274183708096675690000007794096370891516840_);}
	.st11{fill:url(#SVGID_00000160891586251143088030000017062876437426213303_);}
	.st12{fill:url(#SVGID_00000176728959979130177790000002550573659565335454_);}
	.st13{fill:#191919;}
	.st14{fill:url(#SVGID_00000126282152064627363900000009352105049566738842_);}
	.st15{fill:url(#SVGID_00000057150211046630531840000007116234722306293415_);}
	.st16{fill:url(#SVGID_00000181803999972609511400000018007716232528583086_);}
	.st17{fill:url(#SVGID_00000022539419515668440140000015382259987549268623_);}
	.st18{fill:url(#SVGID_00000134952540703261729970000007482118256373490572_);}
	.st19{fill:url(#SVGID_00000015330789546740617600000001567466285773239221_);}
	.st20{fill:url(#SVGID_00000155130144721853041070000006177728298516453787_);}
	.st21{fill:url(#SVGID_00000170980712776098275840000005569877993502369703_);}
	.st22{fill:url(#SVGID_00000008132748738569609890000008333617738494246561_);}
	.st23{fill:url(#SVGID_00000134237152189705934760000010324470434781920687_);}
	.st24{fill:url(#SVGID_00000000935330405586236690000004488831847800129215_);}
	.st25{fill:url(#SVGID_00000061430072417195834190000007042987983391061178_);}
	.st26{fill:#170B6B;}
	.st27{fill:url(#SVGID_00000076600817223948792210000006110548953151960230_);}
	.st28{fill:url(#SVGID_00000139999298760416104980000006643590208053811842_);}
	.st29{fill:url(#SVGID_00000157287207864662993400000002771205198153966757_);}
	.st30{fill:url(#SVGID_00000103955749790821737070000008840101228032459949_);}
</style>
<g>
	<g>
		
			<linearGradient id="SVGID_1_" gradientUnits="userSpaceOnUse" x1="2699.386" y1="5080.5596" x2="2699.386" y2="4432.3467" gradientTransform="matrix(0.7071 0.7071 -0.7071 0.7071 1857.4395 -4864.939)">
			<stop  offset="0" style="stop-color:#90EE26"/>
			<stop  offset="0.1039" style="stop-color:#97EF34"/>
			<stop  offset="0.2989" style="stop-color:#A9F258"/>
			<stop  offset="0.5642" style="stop-color:#C7F692"/>
			<stop  offset="0.8863" style="stop-color:#F0FDE1"/>
			<stop  offset="1" style="stop-color:#FFFFFF"/>
		</linearGradient>
		<path class="st0" d="M252.31,469.33L252.31,469.33c-17.95,45.43-26.94,93.61-26.91,141.76c0,31.95,3.93,63.87,11.84,94.99
			l0.03-0.03l6.93-6.93l161.09-161.09l132.08-132.08l162.46-162.46l6.27-6.27c-2.39-0.64-4.8-1.21-7.24-1.75
			c-125.45-29.25-262.69,5.06-360.48,102.85l-0.03,0.03C299.8,376.91,271.11,421.62,252.31,469.33z"/>
		
			<linearGradient id="SVGID_00000060715403961562764600000018040912221894060178_" gradientUnits="userSpaceOnUse" x1="2888.511" y1="5080.7856" x2="2888.511" y2="4423.5869" gradientTransform="matrix(0.7071 0.7071 -0.7071 0.7071 1857.4395 -4864.939)">
			<stop  offset="0" style="stop-color:#00D084"/>
			<stop  offset="0.0903" style="stop-color:#0DD28A"/>
			<stop  offset="0.2587" style="stop-color:#30D99B"/>
			<stop  offset="0.4868" style="stop-color:#69E3B7"/>
			<stop  offset="0.7625" style="stop-color:#B7F2DC"/>
			<stop  offset="1" style="stop-color:#FFFFFF"/>
		</linearGradient>
		<path style="fill:url(#SVGID_00000060715403961562764600000018040912221894060178_);" d="M691.86,474.83
			c17.95-45.43,26.91-93.58,26.91-141.76c0-32.15-3.98-64.33-11.99-95.66c-0.21-0.1-0.44-0.13-0.69-0.18l-6.27,6.27L537.37,405.95
			L405.29,538.03L244.2,699.12l0,0l-6.93,6.93l-0.03,0.03c0.05,0.26,0.08,0.49,0.18,0.69c2.62,0.67,5.24,1.34,7.88,1.93
			c-0.18-1.41-0.18-1.41,0,0c125.48,29.22,262.71-5.08,360.5-102.88l0.03-0.03C644.4,567.22,673.09,522.51,691.86,474.83z"/>
		
			<linearGradient id="SVGID_00000014635040035679683930000013381762167398172318_" gradientUnits="userSpaceOnUse" x1="2842.1328" y1="5203.2495" x2="2842.1328" y2="4291.0347" gradientTransform="matrix(0.7071 0.7071 -0.7071 0.7071 1857.4395 -4864.939)">
			<stop  offset="1.900645e-04" style="stop-color:#5120FF"/>
			<stop  offset="0.2081" style="stop-color:#3650FF"/>
			<stop  offset="0.4592" style="stop-color:#1884FF"/>
			<stop  offset="0.5822" style="stop-color:#0D98FF"/>
			<stop  offset="1" style="stop-color:#83C5FF"/>
		</linearGradient>
		<path style="fill:url(#SVGID_00000014635040035679683930000013381762167398172318_);" d="M433.1,3.18
			c68.64-0.03,137.26,26.17,189.63,78.53c14.71,14.71,27.4,30.74,37.98,47.69c1.16,1.87,2.31,3.75,3.44,5.65
			c19.39,32.28,33.56,66.8,42.63,102.36c8.01,31.33,11.99,63.51,11.99,95.66c0,48.18-8.96,96.33-26.91,141.76
			c-18.77,47.69-47.46,92.4-86.03,130.97l-0.03,0.03c-97.79,97.79-235.03,132.1-360.5,102.88c-6.85-1.49-6.85-1.49,0,0
			c-2.65-0.59-5.26-1.26-7.88-1.93c9.55,37.64,24.91,74.1,46.04,107.97c0,0,0.01,0.01,0.01,0.01
			c10.58,16.95,23.27,32.97,37.98,47.69c52.36,52.36,121.01,78.53,189.63,78.53c8.22,0,16.38-0.36,24.55-1.13
			c17.64-2.39,35.21-5.78,52.54-10.17c79.79-20.16,155.29-61.4,217.69-123.81l0.03-0.03C914,697.73,958.71,550.2,939.99,409.49
			c-13.17-99.2-57.88-195.02-134.1-271.24C729.66,62.04,633.85,17.33,534.64,4.15c-42.14-5.62-84.87-5.52-126.99,0.23
			C416.1,3.59,424.63,3.18,433.1,3.18z"/>
		
			<linearGradient id="SVGID_00000044880895518592981030000004821034079020253074_" gradientUnits="userSpaceOnUse" x1="2746.0542" y1="4281.0952" x2="2746.0542" y2="5243.812" gradientTransform="matrix(0.7071 0.7071 -0.7071 0.7071 1857.4395 -4864.939)">
			<stop  offset="1.900645e-04" style="stop-color:#5120FF"/>
			<stop  offset="0.2081" style="stop-color:#3650FF"/>
			<stop  offset="0.4592" style="stop-color:#1884FF"/>
			<stop  offset="0.5822" style="stop-color:#0D98FF"/>
			<stop  offset="1" style="stop-color:#83C5FF"/>
		</linearGradient>
		<path style="fill:url(#SVGID_00000044880895518592981030000004821034079020253074_);" d="M0,472.08c0,20.9,1.39,41.81,4.16,62.56
			l0,0c13.17,99.2,57.88,195.02,134.1,271.24c76.22,76.22,172.03,120.93,271.24,134.1c41.83,5.57,84.28,5.55,126.12-0.13
			c-8.17,0.77-16.33,1.13-24.55,1.13c-68.62,0-137.26-26.17-189.63-78.53c-14.71-14.71-27.4-30.74-37.98-47.69
			c-21.14-33.87-36.49-70.34-46.04-107.99l0,0c-0.1-0.21-0.13-0.44-0.18-0.69c-7.91-31.12-11.84-63.05-11.84-94.99
			c-0.03-48.15,8.96-96.33,26.91-141.76c18.8-47.71,47.48-92.42,86.03-130.97l0.03-0.03c97.79-97.79,235.03-132.1,360.48-102.85
			c2.44,0.54,4.85,1.1,7.24,1.75c0.26,0.05,0.49,0.08,0.69,0.18c-9.07-35.57-23.24-70.08-42.63-102.36
			c-1.13-1.9-2.29-3.77-3.44-5.65c-10.58-16.95-23.27-32.97-37.98-47.69C570.37,29.34,501.75,3.15,433.1,3.18
			c-8.47,0-17,0.41-25.45,1.21c-0.1,0-0.18,0.03-0.23,0.03c-17,2.36-33.9,5.6-50.64,9.81c-0.08,0.03-0.15,0.05-0.23,0.08
			c-79.97,20.08-155.73,61.43-218.26,123.96l-0.03,0.03C46.1,230.45,0.03,351.25,0,472.08z"/>
	</g>
	<g>
		<path class="st26" d="M1476.98,506.21c0,11.39-0.68,22.09-2.05,32.11h-276.36c6.37,22.55,18.56,40.43,36.55,53.64
			c17.99,13.21,39.85,19.81,65.59,19.81c20.72,0,39.74-4.15,57.05-12.47c17.31-8.31,30.97-18.84,40.99-31.6l60.81,53.29
			c-18.9,22.55-42.31,40.09-70.2,52.61c-27.9,12.52-58.36,18.79-91.38,18.79c-37.36,0-71.18-8.2-101.46-24.6
			c-30.29-16.4-53.98-39-71.05-67.81c-17.08-28.81-25.62-60.75-25.62-95.82c0-34.61,8.25-66.1,24.77-94.46
			c16.51-28.35,39.28-50.61,68.32-66.79c29.04-16.17,61.2-24.25,96.5-24.25c53.52,0,98.15,17.82,133.91,53.46
			C1459.1,407.77,1476.98,452.46,1476.98,506.21z M1346.66,418.25c-16.51-13.32-35.82-19.99-57.9-19.99
			c-22.09,0-41.33,6.66-57.73,19.99c-16.4,13.32-27.45,31.14-33.14,53.46h182.08C1374.27,449.39,1363.17,431.57,1346.66,418.25z"/>
		<path class="st26" d="M1700.08,692.39c-54.43,0-100.04-17.88-136.81-53.63c-36.78-35.75-55.17-80.16-55.17-133.23
			s18.39-97.47,55.17-133.23c36.77-35.75,82.38-53.63,136.81-53.63c35.53,0,67.69,7.97,96.51,23.91
			c28.81,15.94,51.41,37.58,67.81,64.91l-79.26,47.48c-8.2-14.57-19.76-26.25-34.67-35.01c-14.92-8.76-31.72-13.15-50.39-13.15
			c-28.01,0-51.36,9.45-70.03,28.36c-18.68,18.9-28.01,42.36-28.01,70.37c0,28.01,9.34,51.47,28.01,70.37
			c18.67,18.9,42.02,28.36,70.03,28.36c18.45,0,35.19-4.38,50.22-13.15c15.03-8.77,26.65-20.55,34.84-35.36l79.26,47.49
			c-16.4,27.56-39,49.31-67.81,65.25C1767.77,684.41,1735.61,692.39,1700.08,692.39z"/>
		<path class="st26" d="M2210.6,638.75c-36.67,35.76-82.22,53.63-136.64,53.63c-54.43,0-100.04-17.88-136.81-53.63
			c-36.78-35.75-55.17-80.16-55.17-133.23s18.39-97.47,55.17-133.23c36.77-35.75,82.38-53.63,136.81-53.63
			c54.43,0,99.97,17.88,136.64,53.63c36.66,35.76,55,80.16,55,133.23S2247.26,603,2210.6,638.75z M2073.95,604.25
			c28.23,0,51.58-9.4,70.03-28.18c18.45-18.79,27.67-42.3,27.67-70.54c0-28.24-9.22-51.76-27.67-70.54
			c-18.45-18.79-41.79-28.18-70.03-28.18c-28.01,0-51.36,9.45-70.03,28.36c-18.68,18.9-28.01,42.36-28.01,70.37
			c0,28.01,9.34,51.47,28.01,70.37C2022.59,594.8,2045.94,604.25,2073.95,604.25z"/>
		<path class="st26" d="M2528.75,410.22h-95.99v148.26c0,30.52,16.39,45.78,49.19,45.78c13.89,0,29.49-3.98,46.8-11.96v84.72
			c-18.9,10.25-41.11,15.37-66.61,15.37c-39.86,0-69.86-10.64-90.01-31.94c-20.16-21.29-30.23-50.39-30.23-87.28V410.22h-56.71
			V327.2h56.71v-90.53h90.87v90.53h95.99V410.22z"/>
		<path class="st26" d="M2936.5,506.21c0,11.39-0.68,22.09-2.05,32.11h-276.36c6.37,22.55,18.56,40.43,36.55,53.64
			c17.99,13.21,39.85,19.81,65.59,19.81c20.72,0,39.74-4.15,57.05-12.47c17.31-8.31,30.97-18.84,40.99-31.6l60.81,53.29
			c-18.9,22.55-42.31,40.09-70.2,52.61c-27.9,12.52-58.36,18.79-91.38,18.79c-37.36,0-71.18-8.2-101.46-24.6
			c-30.29-16.4-53.98-39-71.05-67.81c-17.08-28.81-25.62-60.75-25.62-95.82c0-34.61,8.25-66.1,24.77-94.46
			c16.51-28.35,39.28-50.61,68.32-66.79c29.04-16.17,61.2-24.25,96.5-24.25c53.52,0,98.15,17.82,133.91,53.46
			C2918.62,407.77,2936.5,452.46,2936.5,506.21z M2806.17,418.25c-16.51-13.32-35.82-19.99-57.9-19.99
			c-22.09,0-41.33,6.66-57.73,19.99c-16.4,13.32-27.45,31.14-33.14,53.46h182.08C2833.78,449.39,2822.68,431.57,2806.17,418.25z"/>
		<path class="st26" d="M3183.8,321.4h15.37v93.95h-15.37c-32.34,0-57.56,8.88-75.67,26.65c-18.11,17.76-27.16,41.91-27.16,72.42
			v169.44h-90.87V327.2h90.87v46.12C3108.3,338.71,3142.57,321.4,3183.8,321.4z"/>
		<path class="st26" d="M3428.94,321.4h15.37v93.95h-15.37c-32.34,0-57.56,8.88-75.67,26.65c-18.11,17.76-27.16,41.91-27.16,72.42
			v169.44h-90.87V327.2h90.87v46.12C3353.45,338.71,3387.72,321.4,3428.94,321.4z"/>
		<path class="st26" d="M3753.27,327.2h90.87v356.64h-90.87v-42.7c-31.2,34.16-69.92,51.24-116.15,51.24
			c-49.65,0-91.1-17.88-124.35-53.63c-33.25-35.75-49.87-80.16-49.87-133.23s16.62-97.47,49.87-133.23
			c33.25-35.75,74.7-53.63,124.35-53.63c46.46,0,85.17,16.97,116.15,50.9V327.2z M3654.54,604.25c28.24,0,51.75-9.45,70.54-28.36
			c18.79-18.9,28.18-42.36,28.18-70.37c0-28.01-9.39-51.47-28.18-70.37c-18.79-18.9-42.31-28.36-70.54-28.36
			c-28.01,0-51.36,9.45-70.03,28.36c-18.68,18.9-28.01,42.36-28.01,70.37c0,28.01,9.33,51.47,28.01,70.37
			C3603.19,594.8,3626.53,604.25,3654.54,604.25z"/>
	</g>
</g>
</svg>
