<?xml version="1.0" encoding="utf-8"?>
<!-- Generator: Adobe Illustrator 25.0.0, SVG Export Plug-In . SVG Version: 6.00 Build 0)  -->
<svg version="1.1" xmlns="http://www.w3.org/2000/svg" xmlns:xlink="http://www.w3.org/1999/xlink" x="0px" y="0px"
	 viewBox="0 0 500 500" style="enable-background:new 0 0 500 500;" xml:space="preserve">
<style type="text/css">
	.st0{fill:#DFEFFB;}
	.st1{fill:#60A552;}
	.st2{fill:#D9D9D8;filter:url(#Adobe_OpacityMaskFilter);}
	.st3{mask:url(#mask0_1418_163_2_);}
	.st4{fill:#EFE8F3;filter:url(#Adobe_OpacityMaskFilter_1_);}
	.st5{mask:url(#mask1_1418_163_2_);}
	.st6{fill:#A9D8B8;}
	.st7{fill:none;stroke:#4888C8;stroke-width:1.86569;stroke-linecap:round;}
	.st8{fill:none;stroke:#3C75BA;stroke-width:3.73137;stroke-linecap:round;}
	.st9{fill:#2B4241;}
	.st10{fill:#FFFFFF;}
	.st11{fill:none;stroke:#425A5A;stroke-width:1.86569;stroke-linecap:round;}
	.st12{fill:#4888C8;}
	.st13{fill:#94CEF1;}
	.st14{fill:#87CB9E;stroke:#FFFFFF;stroke-width:1.5;}
</style>
<g id="Layer_2">
	<rect class="st0" width="500" height="500"/>
</g>
<g id="Layer_1">
	<g>
		<path class="st1" d="M223.8260956,73.2002182c8.1478424-4.7041473,18.1864471-4.7041321,26.3342743,0.0000534
			l133.3088379,76.9657135c8.1478271,4.7043457,13.1671143,13.3978119,13.1671143,22.8065338v153.9317169
			c0,9.4082031-5.0192871,18.1016541-13.1671143,22.8059998l-133.3088379,76.9656067
			c-8.1478271,4.7043457-18.1864319,4.7043457-26.3342743,0L90.5172729,349.7102356
			c-8.1478271-4.7043457-13.1671371-13.3977966-13.1671371-22.8065186V172.9719849
			c0-9.4081879,5.01931-18.1016541,13.1671371-22.8059998L223.8260956,73.2002182z"/>
		<defs>
			
				<filter id="Adobe_OpacityMaskFilter" filterUnits="userSpaceOnUse" x="89.5213089" y="102.4661789" width="294.9438477" height="319.6334839">
				<feColorMatrix  type="matrix" values="1 0 0 0 0  0 1 0 0 0  0 0 1 0 0  0 0 0 1 0"/>
			</filter>
		</defs>
		
			<mask maskUnits="userSpaceOnUse" x="89.5213089" y="102.4661789" width="294.9438477" height="319.6334839" id="mask0_1418_163_2_">
			<path class="st2" d="M223.8260956,110.0682526c8.1478424-4.7042007,18.1864471-4.7042007,26.3342743,0l101.380127,58.531723
				c8.1477966,4.7043457,13.1671448,13.3978271,13.1671448,22.8065338v117.0632172
				c0,9.4086914-5.0193481,18.1021729-13.1671448,22.8065186l-101.380127,58.5316162
				c-8.1478271,4.7043457-18.1864319,4.7043457-26.3342743,0l-101.3800964-58.5316162
				c-8.1478271-4.7043457-13.1671371-13.3978271-13.1671371-22.8065186V191.4065094
				c0-9.4087067,5.01931-18.1021881,13.1671371-22.8065338L223.8260956,110.0682526z"/>
		</mask>
		<g class="st3">
			<defs>
				
					<filter id="Adobe_OpacityMaskFilter_1_" filterUnits="userSpaceOnUse" x="89.5213089" y="102.4661789" width="294.9438477" height="319.6334839">
					<feColorMatrix  type="matrix" values="1 0 0 0 0  0 1 0 0 0  0 0 1 0 0  0 0 0 1 0"/>
				</filter>
			</defs>
			
				<mask maskUnits="userSpaceOnUse" x="89.5213089" y="102.4661789" width="294.9438477" height="319.6334839" id="mask1_1418_163_2_">
				<circle class="st4" cx="236.9932404" cy="249.9381104" r="147.4719238"/>
			</mask>
			<g class="st5">
				<circle class="st6" cx="236.9932404" cy="249.9381104" r="147.4719238"/>
				<path class="st7" d="M212.8447113,239.5587158v180.6763"/>
				<path class="st8" d="M212.8447113,377.6282654v42.6057129"/>
				<ellipse class="st9" cx="219.0474854" cy="239.2000427" rx="37.1303787" ry="13.6892357"/>
				<ellipse class="st10" cx="189.8280182" cy="194.9679413" rx="7.914185" ry="51.3494034"/>
				<path class="st11" d="M296.1489868,245.449173v148.4515533"/>
				<path class="st8" d="M296.1489868,358.8951111v35.0066833"/>
				<ellipse class="st9" cx="301.2446594" cy="245.1536865" rx="30.5078773" ry="11.2476797"/>
				<ellipse class="st12" cx="277.2393799" cy="208.3304749" rx="6.5026598" ry="42.6712685"/>
				
					<ellipse transform="matrix(0.7230164 -0.6908309 0.6908309 0.7230164 -103.2730484 285.5773621)" class="st12" cx="304.4958496" cy="271.5764771" rx="9.1360264" ry="43.3693542"/>
				
					<ellipse transform="matrix(0.6729095 -0.7397248 0.7397248 0.6729095 -109.7201004 277.3934937)" class="st12" cx="258.8067322" cy="262.7643738" rx="31.0196133" ry="9.0793028"/>
				<ellipse class="st13" cx="277.2393799" cy="245.1536865" rx="6.5026598" ry="11.2476797"/>
				
					<ellipse transform="matrix(0.7230164 -0.6908309 0.6908309 0.7230164 -125.6931992 229.2194824)" class="st10" cx="223.0040588" cy="271.3568115" rx="11.1192198" ry="52.7836914"/>
				
					<ellipse transform="matrix(0.6729094 -0.7397249 0.7397249 0.6729094 -138.0433197 209.0772095)" class="st10" cx="167.3954163" cy="260.6330872" rx="37.753109" ry="11.0501823"/>
				<ellipse class="st13" cx="189.831192" cy="239.2000427" rx="7.914185" ry="13.6892357"/>
			</g>
		</g>
		<circle class="st14" cx="342.3303223" cy="350.0083618" r="80.3195343"/>
		<path class="st10" d="M308.7804565,330.2576294v-7.6685486h15.3370972v53.75354h-8.4796448v-46.0849915H308.7804565z
			 M371.0583801,329.8152161h-24.7015076v14.6734619c1.0322876-1.3762207,2.5565186-2.5317688,4.5715942-3.4655762
			c2.0646057-0.9338379,4.2524719-1.401001,6.5625305-1.401001c4.1291809,0,7.4720764,0.8848267,10.0280762,2.6545105
			c2.6054993,1.7696533,4.4488831,4.0065002,5.5301819,6.7099609c1.1308289,2.7034912,1.6959534,5.5549622,1.6959534,8.5533752
			c0,3.6378174-0.712616,6.8822021-2.1383667,9.7331543c-1.3762512,2.8019714-3.4655762,5.0140381-6.2675476,6.6362305
			c-2.7524719,1.6221924-6.1443176,2.4332886-10.1755676,2.4332886c-5.3579712,0-9.6593933-1.32724-12.9038086-3.9817505
			c-3.2443542-2.65448-5.18573-6.1690674-5.8251038-10.54422h8.1846619
			c0.5409241,2.3105469,1.7454529,4.1539612,3.6130676,5.5301819c1.8681641,1.32724,4.2029419,1.9908752,7.0049438,1.9908752
			c3.4903259,0,6.0958252-1.0570679,7.815979-3.1706543c1.7696838-2.1135864,2.6545105-4.9155579,2.6545105-8.4058838
			c0-3.5393372-0.8848267-6.2427979-2.6545105-8.1109619c-1.7696533-1.9171448-4.3746338-2.8757019-7.815979-2.8757019
			c-2.4085693,0-4.4484253,0.6146545-6.1201172,1.8433838c-1.6221619,1.1797791-2.8019409,2.8019714-3.5393066,4.8665771h-7.963501
			v-31.0428467h32.4438171V329.8152161z"/>
	</g>
</g>
</svg>
