<?xml version="1.0" encoding="utf-8"?>
<!-- Generator: Adobe Illustrator 25.0.0, SVG Export Plug-In . SVG Version: 6.00 Build 0)  -->
<svg version="1.1" xmlns="http://www.w3.org/2000/svg" xmlns:xlink="http://www.w3.org/1999/xlink" x="0px" y="0px"
	 viewBox="0 0 500 500" style="enable-background:new 0 0 500 500;" xml:space="preserve">
<style type="text/css">
	.st0{display:none;fill:#DFF0FB;}
	.st1{filter:url(#Adobe_OpacityMaskFilter);}
	.st2{fill:#FFFFFF;}
	.st3{mask:url(#SVGID_1_);}
	.st4{fill:#DFF0FB;}
	.st5{fill:#BDDFF6;}
	.st6{fill:#2B4241;}
	.st7{fill-rule:evenodd;clip-rule:evenodd;fill:#94CEF1;}
	.st8{fill:#1E6EB7;}
	.st9{fill:#3C80C2;}
	.st10{fill-rule:evenodd;clip-rule:evenodd;fill:#1E6EB7;}
	.st11{fill-rule:evenodd;clip-rule:evenodd;fill:#FFFFFF;}
	.st12{fill:none;stroke:#FFFFFF;stroke-width:3.38837;}
	.st13{fill:#F69287;}
	.st14{fill-rule:evenodd;clip-rule:evenodd;fill:#D77266;}
	.st15{fill:#6BB4E3;}
	.st16{fill:#589E61;}
	.st17{opacity:0.7;}
	.st18{fill-rule:evenodd;clip-rule:evenodd;fill:#425A5A;}
	.st19{fill-rule:evenodd;clip-rule:evenodd;fill:#2B4241;}
	.st20{fill-rule:evenodd;clip-rule:evenodd;fill:#F69287;}
	.st21{fill:#422721;}
	.st22{fill-rule:evenodd;clip-rule:evenodd;fill:#422721;}
	.st23{fill:#D77266;}
</style>
<g id="Layer_1">
	<rect y="0" class="st0" width="500" height="500"/>
	<defs>
		
			<filter id="Adobe_OpacityMaskFilter" filterUnits="userSpaceOnUse" x="-1324.1348877" y="-5.26512" width="2325.1860352" height="872.9534912">
			<feColorMatrix  type="matrix" values="1 0 0 0 0  0 1 0 0 0  0 0 1 0 0  0 0 0 1 0"/>
		</filter>
	</defs>
	<mask maskUnits="userSpaceOnUse" x="-1324.1348877" y="-5.26512" width="2325.1860352" height="872.9534912" id="SVGID_1_">
		<g class="st1">
			<rect y="0" class="st2" width="500" height="500"/>
		</g>
	</mask>
	<g class="st3">
		<path class="st4" d="M-1174.786499,93.5434265c0-41.1672745,0-61.750946,10.4837646-76.1805649
			c3.3858643-4.6601954,7.4841309-8.7584171,12.1442871-12.1442566
			C-1137.7288818-5.26512-1117.1451416-5.26512-1075.9779053-5.26512H805.5016479c41.1702271,0,61.7484741,0,76.1785889,10.4837246
			c4.6592407,3.3858395,8.7624512,7.4840612,12.1451416,12.1442566
			c10.4848022,14.4296169,10.4848022,35.0132904,10.4848022,76.1805649v214.0852051c0,41.167511,0,61.7512207-10.4848022,76.1807251
			c-3.3826904,4.6597595-7.4859009,8.7582397-12.1451416,12.1438293
			c-14.4301147,10.4840088-35.0083618,10.4840088-76.1785889,10.4840088h-1881.4794922
			c-41.1672363,0-61.7509766,0-76.180542-10.4840088c-4.6601562-3.3855896-8.7584229-7.4840698-12.1442871-12.1438293
			c-10.4837646-14.4295044-10.4837646-35.0132141-10.4837646-76.1807251V93.5434265z"/>
		<path class="st5" d="M-910.7384644,347.6716003c-207.6323853-122.1462555-384.0344849,88.4941406-413.3964233,101.6584473
			l205.7640381,418.3583069C-524.8347168,760.1748047,761.4219971,543.7077637,630.5487061,427.8555908
			C466.9587708,283.0409241,227.8695679,98.7312012-180.8753357,234.0417633
			C-589.6229858,369.352356-703.1060181,469.8168335-910.7384644,347.6716003z"/>
		<path class="st6" d="M155.1954498,132.9858856c5.2491913-42.0993042,43.9011536-76.2278442,86.3270721-76.2278442h759.1722412
			l-59.5528564,477.3953552H105.153038L155.1954498,132.9858856z"/>
		<path class="st7" d="M172.6877899,90.2923584c-9.8329163,12.1802063-16.5162048,26.8745499-18.4923401,42.6935272
			l-38.7411652,310.6046753h834.9047852l44.0658569-353.2981873H172.6877899z"/>
		<path class="st8" d="M166.8621063,124.7600708c2.4153595-5.6101303,8.1105804-9.4451294,14.0185699-9.4451294H989.786438
			c8.5496826,0,13.6480103,8.194931,10.1484985,16.3123169c-35.6466064,82.6828613-46.659729,170.973114-31.6392822,253.6559753
			c1.4752808,8.1166992-5.6679077,16.3116455-14.2175903,16.3116455H145.172287
			c-5.9078674,0-10.6424713-3.8343201-11.6648712-9.444458
			C117.6706009,304.9902954,129.2806244,211.9195099,166.8621063,124.7600708z"/>
		<path class="st9" d="M136.9245453,124.7593918c2.4153595-5.6101303,8.1104736-9.4444504,14.0184631-9.4444504h808.9057617
			c8.5497437,0,13.6480713,8.194931,10.1484985,16.3116455c-35.6466064,82.6835327-46.6594849,170.9737854-31.6392212,253.6566467
			c1.4752197,8.1166992-5.6679077,16.3116455-14.2174072,16.3116455H115.234726
			c-5.9079819,0-10.6425705-3.8343201-11.664978-9.444458C87.7329407,304.9902954,99.3429565,211.9195099,136.9245453,124.7593918z"
			/>
		<path class="st10" d="M231.1494446,146.9995422H343.54422h112.3878479h486.1518555
			c-28.2770996,69.6723785-37.4648438,143.3348694-26.5686035,213.0072021H204.5809631
			c-46.8173981,0-78.8273163-47.6833496-71.4921417-106.5032349
			C140.4308929,194.6829071,184.3320465,146.9995422,231.1494446,146.9995422z"/>
		<path class="st11" d="M380.7098083,218.4578552c-7.4953918-16.4041595-31.366394-16.4041595-42.9559021,0
			c-2.1721497,3.0817566-1.5993652,7.0228577,1.2770386,8.8024445c2.8884583,1.7783813,6.9943848,0.7232819,9.1665344-2.3584595
			c5.526123-7.8141632,16.888855-7.8141632,20.45755,0l4.8935852,10.6966095
			c-3.3300781-0.8808289-7.1136475,1.1541748-8.4622803,4.5712891c-1.3608093,3.4374542,0.2624512,6.9703369,3.6043701,7.8917847
			l14.2748718,3.924408c3.3421021,0.9213867,7.161377-1.1183624,8.5220032-4.5558167l5.7769165-14.6472626
			c1.3606262-3.4374237-0.2507935-6.9703369-3.6045532-7.8917542c-3.1272278-0.8605499-6.6720276,0.8677216-8.2236938,3.9065094
			L380.7098083,218.4578552z M376.6397705,296.8109436c19.0968933,0,33.5866699-20.505249,26.0792542-36.9093933
			c-1.4085388-3.0817566-5.2398376-4.1368713-8.5697327-2.3584595c-3.3300781,1.7796021-4.8817749,5.7207031-3.4732361,8.8024292
			c3.5686646,7.8130188-3.3300781,17.579834-12.4248657,17.579834h-12.4487305
			c2.8048401-2.5196228,3.2941895-6.5633545,1.085968-9.0638428c-2.2198792-2.5159912-6.3258057-2.5159912-9.1783752,0
			l-12.150238,10.7228699c-2.8407288,2.5171814-3.3539429,6.5967407-1.1338806,9.1127625l9.4648743,10.7228699
			c2.2318726,2.5159912,6.337616,2.5159912,9.1901855,0c2.6617126-2.3548889,3.2823792-6.0787659,1.527832-8.6090698H376.6397705z
			 M328.384491,297.672699c-19.0967102,0-28.4661255-20.5064392-16.8768311-36.910614l7.3165588-10.3433228
			c-3.3060608,0.5084839-6.2303772-1.483551-6.6958923-4.6990051c-0.5011902-3.4362183,1.9933167-6.9691467,5.5740051-7.890564
			l15.2536011-3.9243774c3.5805054-0.9214478,6.8867493,1.1183319,7.3760986,4.5557709l2.1364746,14.6472473
			c0.5011902,3.4374542-2.0051575,6.9703522-5.5740051,7.8906097c-3.5566711,0.9165955-6.8508606-1.0945129-7.3760986-4.4949646
			l-7.5671692,10.7026062c-5.5140991,7.8129578-1.050293,17.579834,8.0326538,17.579834
			c3.5925293,0,6.1349487,2.8847961,5.6932983,6.4427795C335.2355347,294.7878418,331.9651794,297.672699,328.384491,297.672699z"/>
		
			<ellipse transform="matrix(0.384292 -0.9232116 0.9232116 0.384292 -98.5824356 359.1891479)" class="st6" cx="219.9984283" cy="253.5033417" rx="69.6283035" ry="56.8132133"/>
		<path class="st12" d="M266.6381531,253.5028076c-4.103241,32.9286499-29.5876312,56.3531189-53.6721802,56.3531189
			c-24.0777435,0-43.7228546-23.424469-39.6125946-56.3531189c4.103241-32.9279327,29.5876465-56.3524323,53.6721954-56.3524323
			C251.1033173,197.1503754,270.7484131,220.5748749,266.6381531,253.5028076z"/>
		<path class="st13" d="M-25.0048237,314.755188l-78.3058014-108.5912781l10.2445068,93.3534851l27.0145035,34.5857544
			c19.4873238,24.9464111,56.3072128,28.5776367,81.4210815,9.2358398
			c24.6197777-18.9643555,48.0798874-36.0321655,49.2807083-36.0932312c0.7959366-0.0411682,3.3897018-0.4597473,6.806839-1.0724792
			c11.5413284-2.0722656,21.7241592-8.6972351,28.716217-18.1197205l5.139473-25.3093872
			c0.3773499-1.8588562-2.1134949-2.8400879-3.1083679-1.2255249c-2.8956223-0.7389832-9.1741409-2.1916199-11.1571808-2.0900574
			c-1.9761353,0.1008606-1.8183517-3.37323-1.4889603-5.123642l5.6883163-1.6419983
			c4.899292-1.4128418,8.6732483-5.3315582,9.9014969-10.2781677c0.4528351-1.8416595-1.7841034-3.7162933-3.6092606-3.186554
			c-5.0845032,1.4800568-12.2893143,2.7940826-16.4612427,3.4946594c-2.1682587,0.3657227-4.1925583,1.3297882-5.7981491,2.8366241
			c-6.4500198,6.046524-23.7072067,22.425415-29.1965904,29.7297058
			C27.9401169,297.0423889-5.8057446,312.0578613-25.0048237,314.755188z"/>
		<path class="st14" d="M90.3335114,254.0812531l-4.048378-0.2380829
			c-6.9165726,4.4319458-17.915863,13.3432617-15.9740753,25.1549988
			c1.0361252,6.3127747,6.4569321,13.4598999,11.3423996,19.9030457c0.8302841,1.0958252,1.6468506,2.171051,2.4222641,3.2188416
			c6.2577896-3.5056458,11.781517-8.2539673,16.0975113-14.0664978l5.139473-25.3093872
			c0.3773499-1.8588562-2.1134949-2.8400879-3.1083679-1.2255249c-2.8956223-0.7389832-9.1809464-2.1916199-11.1571808-2.0900574
			c-1.9761353,0.1015625-1.8183517-3.37323-1.4889603-5.123642L90.3335114,254.0812531z"/>
		<polygon class="st15" points="100.7290955,263.1167297 99.590416,249.9729767 108.921463,249.1431274 110.0601425,262.2868958 		
			"/>
		<path class="st7" d="M145.9477081,234.1246643c-2.6623535,1.8965759-6.3608093,2.2945557-9.3388367,0.9682007
			c-3.4308472-1.5239868-7.3145294-2.2142792-11.362915-1.8272705
			c-12.1246262,1.1582489-21.0792007,11.5413818-19.995018,23.1904907
			c1.0840759,11.6491394,11.7952271,20.152832,23.9198532,18.9945679c4.0483704-0.3869934,7.740036-1.8012085,10.8277893-3.9475098
			c2.6829681-1.8684692,6.3882446-2.1779175,9.3525391-0.8200073c3.2661591,1.4931335,6.9577179,2.1730957,10.793457,1.8067017
			l35.9484558-3.434967c11.6442566-1.1129761,20.2076721-11.458374,19.1235962-23.1074677
			c-1.0841827-11.6484375-11.4041748-20.1898956-23.0553284-19.0769196l-35.9416656,3.434967
			C152.3840027,230.671875,148.8844757,232.0393982,145.9477081,234.1246643z"/>
		<path class="st16" d="M93.7924118,261.5270691l-0.7591248-8.7625427
			c-0.2232742-2.5772247,1.6845551-4.8522339,4.2612534-5.0813904l0,0c2.5766983-0.2291718,4.8465195,1.6743164,5.0697937,4.2515259
			l0.7591248,8.7625732c0.2232666,2.5772095-1.6845627,4.8522339-4.261261,5.0813904l0,0
			C96.2854996,266.007782,94.0156784,264.1043091,93.7924118,261.5270691z"/>
		<path class="st16" d="M184.2839813,227.6238861l-22.7877045,2.1772461
			c13.5656128,10.0791473,15.3908691,29.713913,3.9249268,42.1850739l22.7877197-2.1772461
			C199.6748657,257.3378296,197.8496094,237.703064,184.2839813,227.6238861z"/>
		<g class="st17">
			<path class="st7" d="M105.388092,251.4944c3.5544052,8.3795013,12.5020676,13.8675079,22.3966599,12.9219513
				c4.048378-0.3869934,7.7400436-1.801178,10.8208847-3.9475403c2.6897736-1.8684387,6.3951569-2.1779175,9.3593445-0.8199463
				c3.2661591,1.4930725,6.9578247,2.1737671,10.793457,1.8073425l35.9416504-3.434967
				c9.9700775-0.9523926,17.6757812-8.6663361,19.0137634-18.1718445c0.7822266,1.8993225,1.296936,3.946167,1.4958649,6.0993652
				c1.0841827,11.6491089-7.4792328,21.9945068-19.1235962,23.1074829l-35.9415436,3.434967
				c-3.8357391,0.3664246-7.527298-0.3135986-10.793457-1.807373c-2.9710999-1.3572388-6.6695709-1.0484619-9.3594513,0.8199768
				c-3.0808411,2.1463623-6.7725067,3.5605164-10.8208771,3.9475403
				c-12.1246262,1.1589355-22.8357773-7.345459-23.9198532-18.9945984
				C105.0930481,254.7681274,105.1480103,253.1055145,105.388092,251.4944z"/>
		</g>
		<path class="st18" d="M-159.055069,182.6207123c45.06073,2.6527405,85.5516586,29.1690979,105.8691559,69.8947144
			l9.1673317,18.3742523l-32.943119,31.4616089l-2.4289627,30.026123
			c-1.9281769,23.7703552-1.9693298,47.6552429-0.130455,71.4331055l9.2564316,119.8184509h-200.3617859l13.8950195-64.3614502
			c3.9043121-18.0854187,5.8735352-36.5351562,5.8735352-55.0377502v-62.3207397l-50.6530762-22.1125488l13.3392029-46.0056763
			c8.4742126-29.2178192,26.8154907-53.5164795,50.7628632-69.695694c3.9043121-3.44664,8.2546539-6.4795074,13.0166779-9.0046082
			C-204.0542145,184.2963409-181.2802124,180.1299286-159.055069,182.6207123z"/>
		<path class="st19" d="M-68.8991699,294.6483459l-8.0488129,7.6871643l5.1737137-52.0727844L-68.8991699,294.6483459z"/>
		<path class="st19" d="M-260.4848633,476.6386414l3.753418-17.3711243
			c3.9043121-18.0854187,5.8735352-36.5351562,5.8735352-55.0377502v-62.4895325l8.0007629,3.4562378l20.8321991-83.9248352
			c0,0-29.8415375,147.5438232,23.7277222,181.9950562c53.5761871,34.4505615,53.5761871,46.4640503,53.5761871,46.4640503
			L-260.4848633,476.6386414z"/>
		<path class="st20" d="M-292.6661987,323.656189l-3.9249268,14.3347778
			c-8.5908508,31.3518372-7.9389648,64.5158386,1.8594971,95.5101318l27.6663818,87.5100708
			c13.133316-10.1813965,22.7328491-23.7840271,28.0507355-38.9298401
			c-9.8945923-35.3295898-18.3139191-73.6480713-21.0380402-96.0611267l9.1946411-24.6898193v-19.4213562L-292.6661987,323.656189z
			 M-222.2239838,523.6289673h-44.0177765l4.5766907,14.4658203v33.0761108c0,2.9059448,7.3351593,17.3649292,13.0441132,28.055481
			c2.0173798,3.776001,6.5048828,5.4639893,10.5327454,4.0093384l0.6175232,1.0869141
			c1.0567474,1.840271,3.1906586,2.7734375,5.2561035,2.2972412l0.4665527-0.1084595
			c1.907547-0.4390869,3.2524414-2.1339722,3.2524414-4.0874634l1.59198,1.699646
			c1.2556915,1.348999,3.1563263,1.8897095,4.9403381,1.4046021l0.1098328-0.0308838
			c2.3947296-0.6539307,3.9112244-3.019165,3.4994354-5.4715576l1.1459503,1.3634033
			c1.4958649,1.7833862,3.9317474,2.4688721,6.1343384,1.729187c2.4634247-0.8255005,4.0483856-3.2160645,3.8494568-5.8029175
			l-0.4871826-6.2695923c5.4687653-2.3452759,9.0094452-7.7200928,9.0094452-13.6657715V562.282959
			c-3.245636-10.475769-7.5411072-22.4707031-12.5638428-28.7402344
			C-214.2850037,529.7749634-218.7313538,526.1561279-222.2239838,523.6289673z"/>
		<path class="st21" d="M-112.402359,97.0641785c0,30.6278992-24.5100555,55.4562988-54.7358551,55.4562988
			c-45.5754395,23.5980835-55.6758575-24.8283997-55.6758575-55.4562988c0-30.6272278,25.450058-55.4557571,55.6758575-55.4557571
			S-112.402359,66.4369507-112.402359,97.0641785z"/>
		<path class="st21" d="M-238.6234589,70.8853989c20.8664551-20.0640411,31.2001648-12.2075233,34.6996918,0
			c-50.5982666,55.2675934,4.0758209,98.5491714-16.9553223,111.2007828
			c-16.8248749,10.1210175-39.8664856-0.2216187-49.2876282-6.6585999
			C-245.8487854,176.7594452-270.1667175,101.2257996-238.6234589,70.8853989z"/>
		<path class="st13" d="M-144.3985596,169.7076721c32.4696579-2.3858032,26.0333557-50.7724991,18.5060654-80.0212021
			c0,0-9.92202-4.4230576-22.4171829-6.7594681c-12.1932983-2.2801437-21.641861,0-21.641861,0
			c-2.2711792,14.3361588-27.0488434,36.4809341-31.4197083,37.5980225c-0.041153-0.5825577-0.0822906-1.178833-0.1235504-1.7881546
			c-1.4340973-20.0272598-5.4207001-12.0862122,0.4940796,7.0476532c0.6725006,8.7555466,1.5918884,13.1086044,6.6009979,12.0175858
			l0.5557556,56.0567017c0.1509857,14.726593,12.680481,26.2570038,27.3645325,25.1776581
			c14.0733185-1.0340576,24.6609192-13.2794647,23.6522369-27.3514404L-144.3985596,169.7076721z"/>
		<path class="st21" d="M-184.463974,119.8429718l-2.0722504-17.0595627
			c-0.3224792-2.6918564-3.6298828-3.7958984-5.5100098-1.8416901l-3.4788055,3.6216125
			c-0.8851471,0.9201584-1.1390533,2.2767105-0.6518707,3.4569244l5.5510559,13.437973
			C-189.1985626,124.9179001-184.0111389,123.5585861-184.463974,119.8429718z"/>
		<path class="st22" d="M-157.9435577,140.3512421c-0.8919525,0.3444519-1.3379669,1.3579254-1.0017853,2.2636719
			c3.0122681,8.024765,12.4746399,8.6038971,16.9827728,3.9502869c0.6723938-0.6916656,0.6586761-1.8018951-0.0206299-2.4811859
			c-0.6861115-0.6786346-1.7772064-0.668335-2.449585,0.0226288c-2.9573975,3.0493469-9.2633514,2.6108856-11.273819-2.7391815
			C-156.0497131,140.4617157-157.0514984,140.0067902-157.9435577,140.3512421z"/>
		<path class="st22" d="M-124.9386673,99.6675034c0.6930237,0.6676483,1.7908173,0.641571,2.4495926-0.0596924
			c0.6586761-0.7005844,0.6312485-1.8114929-0.054863-2.4798203l-1.2008209,1.2694092
			c1.2008209-1.2694092,1.2008209-1.2687302,1.2008209-1.2694092l-0.0069122-0.0048065l-0.0068054-0.0061722l-0.0138168-0.0137253
			l-0.0411453-0.0384216c-0.0342407-0.0301971-0.0754929-0.0693054-0.1303558-0.1159668
			c-0.1098328-0.0926361-0.260704-0.2147751-0.4528351-0.3561249c-0.3842545-0.2820129-0.933197-0.6422501-1.6399307-0.9874039
			c-1.4066696-0.691658-3.4583893-1.3284225-6.01091-1.1404114c-2.5525055,0.1873245-4.4875946,1.116394-5.7844238,2.0077362
			c-0.6518707,0.4446335-1.1390533,0.8810425-1.4821625,1.2158966c-0.1645813,0.1681061-0.2950439,0.3108368-0.3910522,0.4185562
			c-0.0480652,0.0542145-0.0823975,0.0988159-0.1166382,0.133812l-0.0343475,0.0439072l-0.0137177,0.0164719v0.0061798
			l-0.006897,0.0034256c0,0,0,0.0020599,1.365509,1.0834656l-1.365509-1.0834656
			c-0.5901031,0.7623367-0.4596405,1.8677521,0.2951508,2.4654083c0.747879,0.5942307,1.8320618,0.4638519,2.4221497-0.289566
			c0,0.0006866,0,0.0013809,0,0v-0.002739 M-135.9585876,100.4840469c0.0068054-0.0075455,0.0205231-0.0240173,0.041153-0.0487213
			c0.0480652-0.050087,0.1235504-0.1324234,0.2264709-0.2380981c0.2126465-0.2106552,0.5489502-0.50914,1.0017853-0.8192825
			c0.8988495-0.6182404,2.2643738-1.2790298,4.0964355-1.4135132c1.8320618-0.1351776,3.2730637,0.3197556,4.2542191,0.8000717
			c0.487175,0.2408447,0.864624,0.4871826,1.1047058,0.6649017c0.116745,0.0885162,0.2059479,0.1591873,0.2538986,0.2017288
			c0.0274353,0.0219574,0.0412521,0.0363693,0.0480576,0.0425415v-0.0034256l-0.0068054-0.0027466"/>
		<path class="st22" d="M-157.9846954,102.0581207c0.6930084,0.6676483,1.7909088,0.641571,2.4496918-0.0596924
			c0.6586761-0.7005844,0.6312408-1.8114929-0.0549622-2.4798279l-1.2008209,1.2694244
			c1.2008209-1.2694244,1.2008209-1.2694244,1.2008209-1.2694244l-0.0068054-0.0047989l-0.0069122-0.0061722l-0.0137177-0.0137253
			l-0.041153-0.0377426c-0.0343475-0.0301895-0.0754852-0.0679321-0.1303558-0.1138992
			c-0.1029205-0.0905762-0.253891-0.2106552-0.4392242-0.3485794c-0.3773346-0.2758331-0.9125671-0.6278381-1.5987854-0.9647522
			c-1.3791199-0.6765671-3.3827972-1.298233-5.8735352-1.1150284c-2.4976501,0.1832047-4.3846741,1.091011-5.6540833,1.9617615
			c-0.6312408,0.4343491-1.1184082,0.861145-1.4477997,1.1891327c-0.1647034,0.1639938-0.2950439,0.303978-0.3842621,0.4096451
			c-0.0480499,0.0528336-0.0823975,0.0967484-0.1098328,0.1310577l-0.0411377,0.0432281l-0.0068054,0.0164642l-0.0069122,0.0061798
			v0.0027466c-0.0069122,0.000679-0.0069122,0.0027466,1.3585968,1.0841522l-1.3585968-1.0841522
			c-0.5901031,0.7630157-0.4597473,1.8684387,0.2882385,2.4654083c0.7547913,0.5942307,1.8320618,0.4645386,2.4221649-0.2888794
			c0.0068054-0.0027466,0.0068054-0.0054855,0.0068054-0.0082321c0-0.0006866,0,0,0,0v0.0048065l-0.0068054,0.0034256
			c0.0068054-0.0068588,0.0205231-0.0246964,0.041153-0.0487137c0.0480499-0.0480347,0.1166229-0.1269455,0.2195587-0.2285004
			c0.2058411-0.2037888,0.5283203-0.4919739,0.9675446-0.791832c0.8714294-0.5983429,2.1888733-1.237854,3.9591675-1.3682251
			c1.7772064-0.1303711,3.1701508,0.3101425,4.1170654,0.7739944c0.473465,0.2332993,0.8370819,0.4713974,1.0703583,0.6429443
			c0.1166382,0.085083,0.1990356,0.1530151,0.246994,0.1941833c0.0206299,0.0212708,0.0412445,0.034996,0.0412445,0.0404892
			c0.0068207,0.002739,0.0068207,0.0041122,0.0068207,0.002739l-0.0068207-0.002739v-0.0041199L-157.9846954,102.0581207z"/>
		<ellipse class="st21" cx="-127.9499207" cy="116.8292999" rx="3.4629841" ry="3.508702"/>
		<ellipse class="st21" cx="-159.0403442" cy="117.3549118" rx="3.4629841" ry="3.508702"/>
		<path class="st22" d="M-143.6300507,110.6867142c-0.9537201,0.0706863-1.6741638,0.9105453-1.5986786,1.8766785
			l1.3311768,18.6700058l-5.7981567,0.4261322c-0.9538269,0.0699768-1.6742706,0.9105377-1.6056976,1.8766632
			c0.0686798,0.9661255,0.8988647,1.6927795,1.8526917,1.6227875l7.5340881-0.5530396
			c0.9538422-0.0699921,1.6674805-0.910553,1.5988007-1.8766785l-1.4615326-20.4197617
			C-141.845932,111.3433838-142.6762238,110.6167297-143.6300507,110.6867142z"/>
		<path class="st23" d="M-175.8113556,151.3450623c6.6970062,13.8009491,19.6450043,18.2253723,31.5981293,18.3969116
			l0.6723785,9.3737793C-160.9077454,177.5766754-173.0049438,161.118866-175.8113556,151.3450623z"/>
		
			<ellipse transform="matrix(0.877516 -0.4795473 0.4795473 0.877516 -83.7143784 -81.904129)" class="st13" cx="-202.1920624" cy="122.9265518" rx="13.0266781" ry="17.8398132"/>
		<path class="st22" d="M-200.2184906,120.3267288c1.2831116,1.3311615,2.0790558,3.3450775,2.2232361,5.4070129
			c0.068573,0.9668274,0.8988495,1.6927872,1.8525848,1.6228027c0.9538269-0.0699921,1.6742706-0.9098663,1.6056976-1.8766785
			c-0.1990356-2.717926-1.2419739-5.5730743-3.2113037-7.6103134c-2.0379028-2.1024323-4.9747772-3.227066-8.5771179-2.4990387
			c-0.9332123,0.1893921-1.5439301,1.1129761-1.3586121,2.063324c0.1852112,0.9503479,1.0979004,1.5672073,2.0379028,1.3778305
			C-203.2033081,118.3176193-201.4467316,119.0614319-200.2184906,120.3267288z"/>
		<path class="st13" d="M117.0598831,256.1843567l7.1841812,10.443512c1.6879959,2.4565125,1.2832184,5.7885437-0.9537201,7.7626648
			l-0.3431091,0.301239c-1.6742783,1.4821167-4.1101532,1.7394104-6.0588531,0.6415405l-4.8855743,3.1172791
			c2.586853,1.0670166,3.6366959,4.1698608,2.2300339,6.5872498l-1.3174591,2.2664185
			c-1.235054,2.1257629-3.5131454,3.4329224-5.9696503,3.4329224h-2.1819687l-0.1235504,0.1989746
			c-2.7034912,4.4656067-8.3575745,6.1501465-13.0647354,3.8947144l-11.3217697-5.4248657
			c-2.0927734-1.0038757-3.0466003-3.4638062-2.1751709-5.6169739c0.7822266-1.9336548,2.8201294-3.0520935,4.8718567-2.6760864
			l9.5034256,1.7387695l-9.5171432-3.2140503c-2.0104752-0.6799927-3.2112885-2.7419128-2.813324-4.8285522
			c0.4253998-2.1854553,2.4565048-3.6758423,4.672821-3.4150696l11.6374435,1.3716431l-11.7884216-5.9724426
			c-2.1203079-1.077301-3.0534058-3.6161194-2.1271133-5.8118591c0.9125748-2.1552429,3.3142166-3.2634277,5.5511627-2.5566711
			l25.017746,7.9225464l-2.7034912-6.5330505c-0.6518707-1.5630798-0.192131-3.3670349,1.1184158-4.432663
			C113.2379684,253.976944,115.7973938,254.3474884,117.0598831,256.1843567z"/>
	</g>
</g>
<g id="Layer_2">
</g>
</svg>
