<?xml version="1.0" encoding="utf-8"?>
<!-- Generator: Adobe Illustrator 25.0.0, SVG Export Plug-In . SVG Version: 6.00 Build 0)  -->
<svg version="1.1" xmlns="http://www.w3.org/2000/svg" xmlns:xlink="http://www.w3.org/1999/xlink" x="0px" y="0px"
	 viewBox="0 0 500 500" style="enable-background:new 0 0 500 500;" xml:space="preserve">
<style type="text/css">
	.st0{filter:url(#Adobe_OpacityMaskFilter);}
	.st1{fill:#FFFFFF;}
	.st2{mask:url(#SVGID_1_);}
	.st3{fill:#F3F9FD;}
	.st4{fill:#DFF0FB;}
	.st5{fill:#BDDFF6;}
	.st6{fill-rule:evenodd;clip-rule:evenodd;fill:#D9E4F4;}
	.st7{fill-rule:evenodd;clip-rule:evenodd;fill:#C2D1EC;}
	.st8{fill:#FDC06A;}
	.st9{fill:#EDAE57;}
	.st10{fill-rule:evenodd;clip-rule:evenodd;fill:#FDC06A;}
	.st11{fill:#759E3F;}
	.st12{fill:#ACCF71;}
	.st13{fill:#9BC352;}
	.st14{fill:#CBE6F8;}
	.st15{fill-rule:evenodd;clip-rule:evenodd;fill:#64B4E4;}
</style>
<g id="Layer_1">
	<defs>
		
			<filter id="Adobe_OpacityMaskFilter" filterUnits="userSpaceOnUse" x="-120.1591339" y="-15.2615824" width="933.2912598" height="662.3352661">
			<feColorMatrix  type="matrix" values="1 0 0 0 0  0 1 0 0 0  0 0 1 0 0  0 0 0 1 0"/>
		</filter>
	</defs>
	<mask maskUnits="userSpaceOnUse" x="-120.1591339" y="-15.2615824" width="933.2912598" height="662.3352661" id="SVGID_1_">
		<g class="st0">
			<rect x="0" class="st1" width="500" height="500"/>
		</g>
	</mask>
	<g class="st2">
		<path class="st3" d="M556.9871826,122.7193146c-17.9907227-9.7770691-34.4019165-8.1476135-40.3623657-6.1107101
			c8.2803345-26.1831818,49.9887695-20.9778519,53.6219482-9.4009933c15.6816406,0,26.1360474,10.341011,29.40448,15.5117035
			C579.8184204,107.6774521,562.9439697,116.4521103,556.9871826,122.7193146z"/>
		<g>
			<g>
				<path class="st4" d="M-27.8201599,89.7936249c0-43.769722,0-65.6547623,11.146431-80.9968338
					c3.599966-4.9547367,7.9572039-9.3119736,12.9119396-12.9119396
					c15.3420734-11.146431,37.2271118-11.146431,80.9968338-11.146431h355.290863c43.7693787,0,65.6558838,0,80.9983215,11.146431
					c4.9536133,3.599966,9.309021,7.9572039,12.9093628,12.9119396c11.147522,15.3420734,11.147522,37.2271118,11.147522,80.9968338
					v337.052124c0,43.7693787,0,65.6558838-11.147522,80.998291c-3.6003418,4.9536438-7.9557495,9.3090515-12.9093628,12.9093933
					c-15.3424377,11.147522-37.2289429,11.147522-80.9983215,11.147522H77.2350464c-43.769722,0-65.6547623,0-80.9968338-11.147522
					c-4.9547362-3.6003418-9.3119736-7.9557495-12.9119396-12.9093933
					c-11.146431-15.3424072-11.146431-37.2289124-11.146431-80.998291V89.7936249z"/>
			</g>
			<path class="st5" d="M72.1041183,275.696106c-88.6651306-49.8570709-163.9940491,36.1214905-176.5323486,41.4946289
				l87.867218,170.7657776c253.4573669-43.8861084,802.7254028-107.3569336,746.8382568-154.6427307
				c-69.8544922-59.1118164-171.9549561-134.3429871-346.4998474-79.11203l-5.1834717,1.6400146
				C208.2596741,309.7456665,159.8854065,325.0552673,72.1041183,275.696106z"/>
			<path class="st3" d="M255.092041,149.0856171l-50.6851044,14.621994l608.7252197-0.2017059l-54.5374756-14.4042358
				c-13.8286133-25.0509338-42.6348877-20.2494049-55.3108521-14.7175751
				c2.1522217-36.8247681-31.6223145-34.9669647-48.77771-29.4347992c0-10.6466904-11.5231934-13.3606186-16.9000244-10.6466904
				c8.6889038-74.0996704-71.5688477-71.6042328-107.1599121-46.6572762
				c-23.6593628-23.0472126-40.0705566-4.1752167-45.3197021,8.1414108
				c-33.8255615-24.162693-80.7720947,3.9279022-72.9768982,46.65765c-13.5221863-7.5154572-21.5107727,0.6263199-23.8125,5.6365051
				c-45.1226501-41.693428-87.5277405,0-75.6652832,17.2224808c-7.9885559-3.7677536-14.6821899,1.5699921-17.0313416,4.7096252
				C262.3693237,120.8341599,254.3114471,136.3706512,255.092041,149.0856171z"/>
			<path class="st6" d="M760.7723999,149.6776581h-2.0755615c-28.3977661-15.1596985-49.8684082-8.3840027-57.0508423-3.1009674
				c-13.1866455-23.1529922-42.682312-29.4004974-55.7850342-29.6303177c0-14.3327332-14.9302368-15.1596756-22.3971558-13.7815552
				c-20.4237671,3.7699509-33.7198486-10.8017273-45.7391968-23.9711914
				c-12.6394653-13.8501511-23.8635864-26.1492691-40.4717407-13.9278336
				c-24.0022583-8.5444908-37.8928528,1.9522705-41.8361206,8.2687149c-17.2428589-8.8202515-33.103302-3.6751022-38.8776855,0
				c21.9740601,1.102356,26.0595398,11.2547684,25.3554688,16.1934662
				c-47.5921631-9.921524-57.8970642,19.2940369-61.2785339,30.6637192
				c-60.5161438-13.1180496-85.2661438,5.4657745-90.0738831,16.3973541
				c-4.9171753-0.5723267-9.0500488,3.2862701-10.5018616,5.2874146
				c-21.7770996-9.4002533-36.1200256,1.0151825-40.5666504,7.397995c-8.9698181,0-52.1343689,9.284256-72.5964203,13.9263916
				v0.3060455l606.2549438-0.2009888L760.7723999,149.6776581z"/>
			<path class="st7" d="M727.6544189,163.5339813c-2.4841309-0.7605438-4.9244385-1.5885925-7.3173828-2.4881287
				c-35.0986328-13.2066803-73.5386353-10.0535583-103.8915405-7.5639648
				c-10.4836426,0.8601379-20.0042725,1.6411133-28.0840454,1.6411133c-13.1464844,0-26.7161255-4.3043365-40.7088623-8.7421875
				c-19.5118408-6.1891479-39.8444214-12.6387329-60.9977112-8.0392761
				c-9.6264343,2.0927124-19.0849915,5.3639984-28.8719482,8.7483978
				c-27.1356201,9.3863983-56.7844849,19.6416626-99.4996643,8.0330658
				c-24.9943848-6.7924652-41.0809631-4.5706177-66.4729614-1.0633087
				c-17.6477966,2.4374237-39.7896423,5.495697-72.5442505,6.5812683c-4.6140442,1.010788-8.8425293,1.9548187-12.3888702,2.7591553
				v0.3064117L727.6544189,163.5339813z"/>
			<circle class="st8" cx="103.719902" cy="143.6552124" r="38.6311302"/>
			<path class="st9" d="M136.3865967,164.2857819c-6.602417,5.2666321-14.9692688,8.4142761-24.0711365,8.4142761
				c-21.3353271,0-38.631134-17.2954407-38.631134-38.6311493c0-7.5862045,2.1868362-14.6617508,5.9644394-20.6305618
				c-8.8735275,7.0780945-14.5599976,17.9834061-14.5599976,30.2168655c0,21.3353119,17.2958069,38.6307526,38.631134,38.6307526
				C117.4690018,182.285965,129.5401306,175.1035461,136.3865967,164.2857819z"/>
			<path class="st10" d="M109.9517212,76.1065292c0-3.4412766-2.7898026-6.2310791-6.2314529-6.2310791
				c-3.4412994,0-6.2310867,2.7898026-6.2310867,6.2310791v4.2219162c0,3.4412918,2.7897873,6.2314529,6.2310867,6.2314529
				c3.4416504,0,6.2314529-2.7901611,6.2314529-6.2314529V76.1065292z M109.9517212,206.9823456
				c0-3.4416504-2.7898026-6.2314453-6.2314529-6.2314453c-3.4412994,0-6.2310867,2.7897949-6.2310867,6.2314453v4.2219086
				c0,3.4412842,2.7897873,6.2310791,6.2310867,6.2310791c3.4416504,0,6.2314529-2.7897949,6.2314529-6.2310791V206.9823456z
				 M155.8914795,100.2962265c2.4334106-2.4334106,2.4334106-6.3788223,0-8.812233
				c-2.4334106-2.4337845-6.3787994-2.4337845-8.8122406,0l-2.9853058,2.9849472
				c-2.4334106,2.4334106-2.4334106,6.3788223,0,8.8126068c2.4334106,2.4334106,6.37883,2.4334106,8.8122406,0
				L155.8914795,100.2962265z M63.348423,192.8392944c2.4334145-2.4334106,2.4334145-6.37883,0-8.8126068
				c-2.4334106-2.4334106-6.3788185-2.4334106-8.8122292,0l-2.985321,2.9853058
				c-2.4334106,2.4334106-2.4334106,6.3788452,0,8.8122559c2.4334106,2.4337616,6.3788147,2.4337616,8.812603,0
				L63.348423,192.8392944z M177.5018463,143.6548462c0,3.4416504-2.7901611,6.2314453-6.2314453,6.2314453h-4.2219086
				c-3.4412689,0-6.2310791-2.7897949-6.2310791-6.2314453c0-3.4412842,2.7898102-6.2310944,6.2310791-6.2310944h4.2219086
				C174.7116852,137.4237518,177.5018463,140.213562,177.5018463,143.6548462z M46.6260376,143.6548462
				c0,3.4416504-2.7897873,6.2314453-6.2310791,6.2314453h-4.2219009c-3.4412918,0-6.2310963-2.7897949-6.2310963-6.2314453
				c0-3.4412842,2.7898045-6.2310944,6.2310963-6.2310944h4.2219009
				C43.8362503,137.4237518,46.6260376,140.213562,46.6260376,143.6548462z M147.0792389,195.8253326
				c2.4334412,2.4334106,6.37883,2.4334106,8.8122406,0s2.4334106-6.3788147,0-8.8122406l-2.9853058-2.985321
				c-2.4334106-2.4334106-6.37883-2.4334106-8.8122406,0s-2.4334106,6.37883,0,8.8122406L147.0792389,195.8253326z
				 M54.5361938,103.2822723c2.4334106,2.4334259,6.3788185,2.4334259,8.8122292,0
				c2.4334145-2.4334106,2.4334145-6.3788223,0-8.812233l-2.9849472-2.985321c-2.4337883-2.4334106-6.3791924-2.4334106-8.812603,0
				s-2.4334106,6.3788223,0,8.8122406L54.5361938,103.2822723z"/>
			<path class="st11" d="M588.1680908,467.4670715C377.7111816,379.0784607,78.8353195,352.5082397-44.2952271,350.2721863
				l-13.8395615,268.2008362C244.9892426,604.9653931,798.6213989,555.8557129,588.1680908,467.4670715z"/>
			<path class="st12" d="M-34.8646965,455.0027466c210.4562378-88.3886414,509.332428-114.9588623,632.4622803-117.1949463
				l13.8394775,268.2008057C308.3127441,592.5010376-245.3205566,543.3913574-34.8646965,455.0027466z"/>
			<path class="st13" d="M78.3866425,414.2683105c0-25.0053101,386.819458-52.6552734,495.9163818-60.0091248
				c0,158.8631897-37.9986572,186.3197327-56.9997559,180.1915588c-360.3864136,257.7572632-714.130249-8.8239136-622.9311523,0
				c113.9991989,11.0344238,609.7299194-74.1916199,576.6338501-87.0608826S78.387001,445.5258789,78.3866425,414.2683105z"/>
			<path class="st14" d="M369.3323059,286.1925049c1.6013489-3.120636-5.7014465-13.12677-9.2069092-13.12677
				l-192.8507538,6.2970886c-2.8138733,0-5.3910065,1.5743713-6.6753693,4.0774536L85.2575378,413.8123169
				c-1.6009979,3.1224976,6.5779953,11.7786255,10.084938,11.7786255h197.8868103
				c2.8160706,0,5.3913574-1.5758667,6.6753845-4.078186L369.3323059,286.1925049z"/>
			<path class="st1" d="M363.7074585,279.6290894c1.6013489-3.120636-0.6639099-6.8296814-4.1730042-6.8296814H161.6472778
				c-2.8135071,0-5.3906708,1.5744019-6.6750336,4.0774841l-69.4290848,135.319519
				c-1.6009979,3.1188049,0.6649857,6.8285522,4.1723022,6.8285522h197.8890076
				c2.8123779,0,5.3876953-1.5721741,6.6753845-4.0781555L363.7074585,279.6290894z"/>
			<path class="st15" d="M311.0375977,279.3628235l-15.4555359,30.1238403l-46.4092102,0.0036621l15.4580688-30.1275024H311.0375977
				z M315.2543945,279.3628235l-15.4555054,30.1238403h39.1549377l15.4555359-30.1238403H315.2543945z M337.0278015,313.2402039
				l-15.3971252,30.0100403H282.475708l15.3971558-30.0100403H337.0278015z M319.7046509,347.0001221l-15.3971558,30.0100708
				h-39.1549377l15.3971558-30.0100708H319.7046509z M302.3851318,380.7637329l-16.2653198,31.695282h-39.1534882
				l16.2638702-31.695282H302.3851318z M242.7502441,412.4590149h-46.4092407l16.2627869-31.695282h46.4096069
				L242.7502441,412.4590149z M192.1245728,412.4590149h-46.4095917l16.2627869-31.695282h46.4099579L192.1245728,412.4590149z
				 M141.4985504,412.4590149H94.8431091l16.2631149-31.695282h46.6554642L141.4985504,412.4590149z M113.030777,377.0101929
				l15.397522-30.0100708h46.6554413l-15.3975067,30.0100708H113.030777z M130.3528595,343.2502441l15.3978729-30.0100403
				h46.6554565l-15.3978729,30.0100403H130.3528595z M147.6753082,309.4903259l15.456604-30.1275024h46.6554413
				l-15.456604,30.1275024H147.6753082z M214.0034332,279.3628235h46.4106903l-15.4573364,30.1275024h-46.4099579
				L214.0034332,279.3628235z M179.2998199,347.0001221l-15.3971558,30.0100708h46.4095917l15.3971558-30.0100708H179.2998199z
				 M229.9258423,347.0001221l-15.3975067,30.0100708h46.4110565l15.3971558-30.0100708H229.9258423z M278.2589111,343.2502441
				h-46.408493l15.3978729-30.0100403h46.4077759L278.2589111,343.2502441z M227.6343384,343.2502441h-46.4099579
				l15.3978882-30.0100403h46.4095917L227.6343384,343.2502441z"/>
			<path class="st14" d="M572.1107178,286.1925049c1.6013794-3.120636-5.701416-13.12677-9.2069092-13.12677l-192.8529053,6.2970886
				c-2.8124084,0-5.3877563,1.5743713-6.675415,4.0774536l-75.3406067,130.3720398
				c-1.6013489,3.1224976,6.5769043,11.7786255,10.0860291,11.7786255h197.8867798
				c2.8124084,0,5.3913879-1.5758667,6.675415-4.078186L572.1107178,286.1925049z"/>
			<path class="st1" d="M566.4859009,279.6290894c1.6013794-3.120636-0.6675415-6.8296814-4.1730347-6.8296814H364.4260864
				c-2.8160706,0-5.3914185,1.5744019-6.6753845,4.0774841l-69.4313049,135.319519
				c-1.5977173,3.1188049,0.6675415,6.8285522,4.1730347,6.8285522h197.8868103
				c2.8160706,0,5.3913574-1.5721741,6.6753845-4.0781555L566.4859009,279.6290894z"/>
			<path class="st15" d="M513.81604,279.3628235l-15.4555359,30.1238403l-46.4066772,0.0036621l15.4555359-30.1275024H513.81604z
				 M518.0328369,279.3628235l-15.4555054,30.1238403h39.1549072l15.4555664-30.1238403H518.0328369z M539.8098755,313.2402039
				l-15.4007568,30.0100403h-39.1549683l15.3971863-30.0100403H539.8098755z M522.4867554,347.0001221l-15.3971558,30.0100708
				h-39.1585999l15.3971252-30.0100708H522.4867554z M505.1636047,380.7637329l-16.2617188,31.695282h-39.1585999
				l16.2617188-31.695282H505.1636047z M445.5265198,412.4590149h-46.4066772l16.2616577-31.695282h46.4103394
				L445.5265198,412.4590149z M394.9030151,412.4590149h-46.4103088l16.2652893-31.695282h46.4103394L394.9030151,412.4590149z
				 M344.2795715,412.4590149h-46.6583862l16.2653198-31.695282h46.6547241L344.2795715,412.4590149z M315.8088684,377.0101929
				l15.3971558-30.0100708h46.6583557l-15.3971252,30.0100708H315.8088684z M333.132019,343.2502441l15.3971558-30.0100403
				h46.6547241l-15.3971252,30.0100403H333.132019z M350.4551697,309.4903259l15.4555359-30.1275024h46.6547241
				l-15.4555359,30.1275024H350.4551697z M416.7822266,279.3628235h46.4103088L447.73703,309.4903259h-46.4103088
				L416.7822266,279.3628235z M382.0775146,347.0001221l-15.3971252,30.0100708h46.4103088l15.3971558-30.0100708H382.0775146z
				 M432.7046204,347.0001221l-15.3971252,30.0100708h46.4066772l15.3971252-30.0100708H432.7046204z M481.037323,343.2502441
				h-46.4066772l15.3971863-30.0100403h46.4066772L481.037323,343.2502441z M430.4138794,343.2502441H384.00354
				l15.3971558-30.0100403h46.4103088L430.4138794,343.2502441z"/>
		</g>
	</g>
</g>
<g id="Layer_2">
</g>
</svg>
