<?xml version="1.0" encoding="utf-8"?>
<!-- Generator: Adobe Illustrator 25.0.0, SVG Export Plug-In . SVG Version: 6.00 Build 0)  -->
<svg version="1.1" xmlns="http://www.w3.org/2000/svg" xmlns:xlink="http://www.w3.org/1999/xlink" x="0px" y="0px"
	 viewBox="0 0 500 500" style="enable-background:new 0 0 500 500;" xml:space="preserve">
<style type="text/css">
	.st0{filter:url(#Adobe_OpacityMaskFilter);}
	.st1{fill:#FFFFFF;}
	.st2{mask:url(#SVGID_1_);}
	.st3{fill:#D9EDFA;}
	.st4{fill:#BDDFF6;}
	.st5{fill-rule:evenodd;clip-rule:evenodd;fill:#3A8FCD;}
	.st6{fill-rule:evenodd;clip-rule:evenodd;fill:#8AC4EB;}
	.st7{fill-rule:evenodd;clip-rule:evenodd;fill:#5CA7DC;}
	.st8{fill:#4888C8;}
	.st9{fill:#8AC4EB;}
</style>
<g id="Layer_2">
</g>
<g id="Layer_1">
	<defs>
		
			<filter id="Adobe_OpacityMaskFilter" filterUnits="userSpaceOnUse" x="-91.2312927" y="0" width="911.4260254" height="554.3488159">
			<feColorMatrix  type="matrix" values="1 0 0 0 0  0 1 0 0 0  0 0 1 0 0  0 0 0 1 0"/>
		</filter>
	</defs>
	<mask maskUnits="userSpaceOnUse" x="-91.2312927" y="0" width="911.4260254" height="554.3488159" id="SVGID_1_">
		<g class="st0">
			<rect class="st1" width="500" height="500"/>
		</g>
	</mask>
	<g class="st2">
		<rect class="st3" width="500" height="500"/>
		<g>
			<rect x="-91.2312927" y="303.3470764" class="st4" width="911.4260254" height="251.0017548"/>
			<g>
				<path class="st5" d="M399.3052673,368.8572388c2.2112427-3.4653015,4.2239075-7.0640564,6.0091248-10.7978821
					l-91.7254028-51.258728c-33.5713806-0.2994995-89.9241943,26.2595825-46.7604065,134.8897705
					c7.7228394,0,19.9397278-2.0313721,34.1185608-6.2659912V422.125946l19.2104797,6.5862732
					c2.5726624-1.0298462,5.1693726-2.1231995,7.7788696-3.2811279l6.2056274-19.1827087h28.0917969
					c2.2859802-1.5994568,4.5388794-3.2560425,6.7485352-4.9707947l-4.5303345-18.1219177L399.3052673,368.8572388z"/>
				<path class="st6" d="M142.1014252,96.0011292c-5.7662354,3.3291626-7.7420502,10.702858-4.4128876,16.469101
					l17.2309113,29.8444672c0.2215424,0.3838348,0.4617767,0.7516785,0.717514,1.1018829
					c-18.9739838,28.1179504-18.7081299,71.9602661,3.62117,110.6353302
					c15.5412445,26.9183655,38.594986,45.83255,62.5840607,54.0438538c-1.5748901,3.1775818-2.9880219,6.468811-4.2265778,9.866333
					c-5.2644196,14.4414978-3.8662262,30.4717407,3.8192291,43.7835999l46.4091492,80.3824463
					c0.4388123-0.712738,0.9070129-1.4478455,1.4051208-2.2037964c-0.4126892,0.0795593-0.8179016,0.1558838-1.2166748,0.2290344
					l4.0840149-65.4263611l28.4222717,31.2789612c1.2898254-1.077301,2.6121826-2.1535645,3.9655151-3.2261353
					l-9.5123291-37.4839783l28.401947-3.9906311l19.01297,8.3890991l11.4075317-16.8161011l23.263031,3.3953552
					l29.9357605,4.5661316l-46.0023193-79.6783142c-7.6854858-13.3118286-20.8692017-22.5380554-36.0073547-25.1993408
					c-3.5619507-0.6262207-7.1190491-1.0479584-10.65802-1.2732544
					c4.8832397-24.8806152,0.0299072-54.3027954-15.5113525-81.2211609
					c-22.3292847-38.6755981-60.1661987-60.8271255-94.0044708-58.4535751
					c-0.1751099-0.3966599-0.3731689-0.7874451-0.5952759-1.1718216l-17.2303619-29.8439331
					c-3.3291626-5.7667694-10.7028656-7.7420578-16.469101-4.4128952L142.1014252,96.0011292z"/>
				<path class="st7" d="M178.6752167,78.1573486c-2.7008057-0.4820862-5.5799255-0.0501862-8.141922,1.4291458
					L142.099823,96.0021973c-5.252121,3.0323334-7.3592682,9.4199905-5.1779175,14.8920746l11.6958313-6.7528152
					c5.7662354-3.3291626,13.1399384-1.3533401,16.469101,4.4128952l17.2303925,29.8444672
					c0.2215424,0.3838501,0.4201355,0.7751617,0.5952454,1.1718292
					c33.8382721-2.3740845,71.6751862,19.7779694,94.0044861,58.4535522
					c11.4951172,19.9098358,12.6365051,45.7524872,5.150177,68.6412659c0,0-10.9335022,24.950531-60.2462921,41.4714355
					c-0.1633606,0.3299255-0.3251343,0.6614685-0.4852753,0.9934998
					c-2.5844269,5.7288818-4.5832062,12.2756348-6.0881653,17.6777649c-0.5317383,3.0403442-0.7890472,6.1105652-0.7762299,9.174408
					c11.3365479-8.3581238,57.750473-41.4602356,92.1156769-49.3565674
					c20.2221375,2.490448,24.8213501,5.7801208,32.5068359,19.09198l28.3795471,49.1547546l9.6025391,1.4013977
					l29.9341736,4.5661011l-46.0023193-79.6782837c-7.3288574-12.693634-19.6573181-21.6726685-33.9130249-24.7866821
					c-0.5771179-0.1259766-1.1574097-0.2423706-1.740387-0.3491516c-0.117981-0.0213318-0.2359619-0.0426941-0.3544922-0.0635071
					c-3.3392944-0.5872498-6.6743469-0.9945984-9.993866-1.2284393c-0.2210388-0.0154724-0.4414978-0.029892-0.6620178-0.044281
					c-0.0005188,0-0.0010376,0-0.0021362,0c4.8832397-24.8811798,0.030426-54.3028259-15.511322-81.2211761
					c-17.8374023-30.8956451-45.5699005-51.2464371-73.2559662-56.9737091
					c-1.5567322-0.3224564-3.1134644-0.5979233-4.6680908-0.8269501c-5.4074707-0.79599-10.7914734-1.0234146-16.0783081-0.6529083
					c0,0,0,0,0-0.0005417c-0.0010681,0.0005417-0.0015869,0.0005417-0.002121,0.0005417
					c-0.1751099-0.3966675-0.3731689-0.7879868-0.5947266-1.1718292l-17.2309113-29.8444672
					C185.1504211,80.7951508,182.0524292,78.7611465,178.6752167,78.1573486z"/>
				<path class="st8" d="M128.1510925,113.9212646c-3.6398697-6.3043747-1.479866-14.3656845,4.8245087-18.0055466
					l42.046936-24.2757568c6.3043671-3.6398087,14.3656769-1.4798126,18.0055542,4.8245087l12.1885834,21.1120911
					l-64.8769836,37.4567947L128.1510925,113.9212646z"/>
				<path class="st9" d="M104.9868393,328.402832c13.7773666-15.309021,19.7752991-33.8078613,21.0517654-41.1436768
					c32.9157562,0,19.4555206,27.4292908,8.6106415,41.1436768H104.9868393z"/>
				<path class="st9" d="M400.6463013,180.2914734c-16.0740356,3.0622253-44.971405-13.3956604-57.4109192-22.00737
					l-5.7400818,22.00737c6.1239319,13.0128632,44.6521606,23.2827606,63.151001,26.7907562V180.2914734z"/>
			</g>
		</g>
	</g>
</g>
<g id="Layer_3">
</g>
</svg>
