<svg xmlns="http://www.w3.org/2000/svg" version="1.1" xmlns:xlink="http://www.w3.org/1999/xlink" xmlns:svgjs="http://svgjs.com/svgjs" width="512" height="512" x="0" y="0" viewBox="0 0 128 128" style="enable-background:new 0 0 512 512" xml:space="preserve" class=""><g transform="matrix(1.29,0,0,1.29,-18.560290393829348,-18.559710159301687)"><path d="M64 17.249A46.75 46.75 0 1 0 110.751 64 46.8 46.8 0 0 0 64 17.249zm0 90A43.25 43.25 0 1 1 107.251 64 43.3 43.3 0 0 1 64 107.249z" fill="#000000" data-original="#000000" class=""></path><path d="M87.1 60.582 55.314 42.229a3.945 3.945 0 0 0-5.914 3.417v36.706a3.937 3.937 0 0 0 5.918 3.417L87.1 67.415a3.946 3.946 0 0 0 0-6.833zm-1.75 3.8L53.565 82.737a.446.446 0 0 1-.668-.385V45.646a.425.425 0 0 1 .223-.386.448.448 0 0 1 .223-.064.438.438 0 0 1 .222.064l31.789 18.353a.446.446 0 0 1 0 .771z" fill="#000000" data-original="#000000" class=""></path></g></svg>