<svg id="Layer_1" data-name="Layer 1" xmlns="http://www.w3.org/2000/svg" viewBox="0 0 500 123.16264"><defs><style>.cls-1{fill-rule:evenodd;}</style></defs><path class="cls-1" d="M102.89237,20.42453l.63221,3.95132a72.57683,72.57683,0,0,1,.63222,10.98468,103.08674,103.08674,0,0,1-2.845,24.10305,93.2827,93.2827,0,0,1-13.03935,30.03C81.23914,99.9251,71.04473,110.1195,56.2668,118.4963l-1.81761,1.02734-1.81761-1.02734a90.059,90.059,0,0,1-45.045-59.03272A103.08673,103.08673,0,0,1,4.74159,35.36053,85.336,85.336,0,0,1,5.3738,24.37586L5.927,20.42455a1.92643,1.92643,0,0,0,0-.94832,1.75418,1.75418,0,0,0-.39514-.86929,2.40494,2.40494,0,0,0-.63221-.63222,3.30245,3.30245,0,0,0-.79026-.3161,1.9262,1.9262,0,0,0-.94832,0,2.92144,2.92144,0,0,0-.86929.39513,2.40524,2.40524,0,0,0-.63221.63222,4.45556,4.45556,0,0,0-.31611.94831L.71124,23.5856A97.11563,97.11563,0,0,0,0,35.36053,109.01266,109.01266,0,0,0,3.003,60.649,100.19882,100.19882,0,0,0,8.45583,77.08645,94.288,94.288,0,0,0,16.7536,92.25953a95.17272,95.17272,0,0,0,33.66524,30.42516l2.924,1.65956a3.08216,3.08216,0,0,0,2.3708,0l2.924-1.65956A97.37594,97.37594,0,0,0,92.30283,92.25953,95.51421,95.51421,0,0,0,106.05341,60.649a108.93511,108.93511,0,0,0,2.924-25.28844,99.40708,99.40708,0,0,0-.71123-11.854l-.63222-3.95132a4.45551,4.45551,0,0,0-.3161-.94831,2.40494,2.40494,0,0,0-.63221-.63222,2.92138,2.92138,0,0,0-.8693-.39513,1.92616,1.92616,0,0,0-.94831,0,4.45578,4.45578,0,0,0-.94832.3161,2.40506,2.40506,0,0,0-.63221.63221,2.92161,2.92161,0,0,0-.39513.8693Z" transform="translate(0 -1.41868)"/><path class="cls-1" d="M19.20343,17.73764,54.60725,6.59491l36.11506,11.3798a3.84737,3.84737,0,0,0,.94832.079,2.10421,2.10421,0,0,0,.94831-.23708,2.0068,2.0068,0,0,0,.79026-.63221,1.269,1.269,0,0,0,.39514-.8693,3.84729,3.84729,0,0,0,.079-.94831,2.10425,2.10425,0,0,0-.23708-.94832,2.83807,2.83807,0,0,0-.55319-.79026,1.269,1.269,0,0,0-.86929-.39513L55.31849,1.53722a2.193,2.193,0,0,0-1.42248,0L17.86,12.917a4.236,4.236,0,0,0-.86929.39514,1.80652,1.80652,0,0,0-.55319.79026,2.10421,2.10421,0,0,0-.23708.94831,3.84737,3.84737,0,0,0,.079.94832,2.9213,2.9213,0,0,0,.39513.86929,2.1516,2.1516,0,0,0,.79026.63222,1.68535,1.68535,0,0,0,.94832.23708A1.31846,1.31846,0,0,0,19.20343,17.73764Z" transform="translate(0 -1.41868)"/><path class="cls-1" d="M1.73859,21.13578,52.3945,123.23786a2.32343,2.32343,0,0,0,.79026.94833,2.42567,2.42567,0,0,0,2.52885,0,2.72414,2.72414,0,0,0,.94831-.94833L87.56124,63.57294l.079-.079,19.75659-42.43717a2.10421,2.10421,0,0,0,.23708-.94831,2.00465,2.00465,0,0,0-.15805-.94831,1.88389,1.88389,0,0,0-.47416-.8693,2.72639,2.72639,0,0,0-.71123-.63221,1.68532,1.68532,0,0,0-.94832-.23708,3.84729,3.84729,0,0,0-.94831.079,1.88394,1.88394,0,0,0-.8693.47416,1.8065,1.8065,0,0,0-.55318.79026L83.2148,61.20214,54.44919,116.75769,5.927,18.765c-.15805-.23708-.39514-.55318-.55319-.79026a1.88392,1.88392,0,0,0-.86929-.47417,1.32166,1.32166,0,0,0-.94831-.079,2.10406,2.10406,0,0,0-.94831.23709,2.72611,2.72611,0,0,0-.71124.63221,2.92145,2.92145,0,0,0-.39514.86929,1.9458,1.9458,0,0,0-.079.94832A3.91234,3.91234,0,0,0,1.73859,21.13578Z" transform="translate(0 -1.41868)"/><path class="cls-1" d="M25.9997,66.655H82.42454a3.96641,3.96641,0,0,0,.94831-.15806,1.2611,1.2611,0,0,0,.71124-.55319,1.63976,1.63976,0,0,0,.47416-.79027,2.65152,2.65152,0,0,0-.47416-2.68689,4.34438,4.34438,0,0,0-.71124-.55319,3.96643,3.96643,0,0,0-.94831-.15807H25.9997a3.96642,3.96642,0,0,0-.94832.15807,1.26113,1.26113,0,0,0-.71124.55319,1.63964,1.63964,0,0,0-.47415.79026,2.61763,2.61763,0,0,0,0,1.89663,1.63974,1.63974,0,0,0,.47415.79027,4.344,4.344,0,0,0,.71124.55319C25.36748,66.576,25.68359,66.576,25.9997,66.655ZM183.26221,45.39687H146.594a3.96681,3.96681,0,0,0-.94833.15806,1.26107,1.26107,0,0,0-.71123.55319,1.63984,1.63984,0,0,0-.47416.79027,3.96584,3.96584,0,0,0-.15807.94832V78.27187a3.96634,3.96634,0,0,0,.15807.94833,1.63966,1.63966,0,0,0,.47416.79026,4.344,4.344,0,0,0,.71123.5532,3.96632,3.96632,0,0,0,.94833.15806h36.66824v5.13672H146.594a8.70715,8.70715,0,0,1-1.42247-.15807,9.55338,9.55338,0,0,1-1.42246-.39513,6.30119,6.30119,0,0,1-1.26443-.6322c-.39513-.3161-.71123-.6322-1.10636-.94833a7.78141,7.78141,0,0,1-1.58053-2.37079,9.55472,9.55472,0,0,1-.39513-1.42246,8.70678,8.70678,0,0,1-.15807-1.42247V47.92572a8.70617,8.70617,0,0,1,.15807-1.42247,9.55338,9.55338,0,0,1,.39513-1.42246,7.00645,7.00645,0,0,1,.6322-1.34346,4.15848,4.15848,0,0,1,.94833-1.10636,13.762,13.762,0,0,1,1.10636-.94833,6.30014,6.30014,0,0,1,1.26443-.6322,9.55472,9.55472,0,0,1,1.42246-.39513,8.70788,8.70788,0,0,1,1.42247-.15807h36.66824v4.89963Zm68.832-5.13672v5.13672H216.76939v15.094h28.37047v5.21575H216.76939v15.094H252.0942v5.13672H211.86977V40.26017H252.0942Z" transform="translate(0 -1.41868)"/><path d="M324.87751,48.00475V61.36021a8.70713,8.70713,0,0,1-.15806,1.42246,9.5535,9.5535,0,0,1-.39513,1.42247,7.00674,7.00674,0,0,1-.6322,1.34346,6.37228,6.37228,0,0,1-.94833,1.10636,13.76251,13.76251,0,0,1-1.10637.94833,6.30031,6.30031,0,0,1-1.26442.6322l-1.42247.47416a8.70762,8.70762,0,0,1-1.42246.15806h-6.71725l13.82962,16.99068h-6.63821L304.25164,68.86771H288.13026a12.06242,12.06242,0,0,1-2.37079-.23707V85.85839h-4.97865V40.33918h36.8263a8.70713,8.70713,0,0,1,1.42247.15806,9.55343,9.55343,0,0,1,1.42246.39514,4.0079,4.0079,0,0,1,1.26443.71123,8.14249,8.14249,0,0,1,1.97566,2.05469,7.005,7.005,0,0,1,.6322,1.34346,9.55472,9.55472,0,0,1,.39513,1.42246A11.87952,11.87952,0,0,1,324.87751,48.00475ZM288.05121,63.81H317.528a3.96681,3.96681,0,0,0,.94833-.15806,1.00529,1.00529,0,0,0,.71123-.5532,1.63991,1.63991,0,0,0,.47417-.79026,3.96632,3.96632,0,0,0,.15806-.94833V48.00473a2.76168,2.76168,0,0,0-.6322-1.73859,2.22414,2.22414,0,0,0-1.65956-.79027H288.05123a3.96617,3.96617,0,0,0-.94832.15807,1.2611,1.2611,0,0,0-.71124.55319,1.63981,1.63981,0,0,0-.47416.79026,3.96632,3.96632,0,0,0-.15806.94833V61.28118a2.24115,2.24115,0,0,0,.79026,1.73859A1.91,1.91,0,0,0,288.05121,63.81Z" transform="translate(0 -1.41868)"/><path class="cls-1" d="M351.27232,40.26015H395.369v5.13672H375.84951V85.85839h-4.97865V45.39687H351.27232ZM422.238,85.93742V40.33918h4.97865V85.93742Zm71.28182-45.67727h6.40111L481.50781,63.09877,500,85.93739h-6.48017L477.08235,65.70663H462.8576V85.93739h-4.97866V40.33916h5.05771V60.56992H477.1614Z" transform="translate(0 -1.41868)"/></svg>